# xmcd
#
# Track frame offsets:
#	150
#	22078
#	37115
#	49106
#	61624
#	75440
#	85656
#	101330
#	118335
#	136146
#	149574
#	159664
#	173247
#	189108
#	204468
#	219719
#	235219
#	254591
#	271467
#	286146
#
# Disc length: 4110 seconds
#
# Revision: 3
# Processed by: cddbd v1.5.2PL0 Copyright (c) Steve Scherf et al.
# Submitted via: audiograbber 1.83.01
#
DISCID=1f100c14
DTITLE=The Cats - 100 [CD 4)
DYEAR=2008
DGENRE=Pop
TTITLE0=El Paso
TTITLE1=The Greatest Thing
TTITLE2=I've Just Seen A Face [mono]
TTITLE3=Ave Maria no morro [mono]
TTITLE4=Take Me With You
TTITLE5=Lonely Nights
TTITLE6=Darling Oh Darling
TTITLE7=Samaina
TTITLE8=I Walk Through The Fields
TTITLE9=I've Always Tried To Understand
TTITLE10=Irish
TTITLE11=Lies
TTITLE12=Second Pair Of Eyes
TTITLE13=Hey Baby (Won't You Come Out Tonight)
TTITLE14=Time Machine
TTITLE15=Poppy
TTITLE16=Shine On
TTITLE17=Money Maker
TTITLE18=She Don't Love Me
TTITLE19=Silent Breeze
EXTD=
EXTT0=
EXTT1=
EXTT2=
EXTT3=
EXTT4=
EXTT5=
EXTT6=
EXTT7=
EXTT8=
EXTT9=
EXTT10=
EXTT11=
EXTT12=
EXTT13=
EXTT14=
EXTT15=
EXTT16=
EXTT17=
EXTT18=
EXTT19=
PLAYORDER=
